<svg width="40" height="35" viewBox="0 0 40 35" fill="none" xmlns="http://www.w3.org/2000/svg">
<path d="M40 24.7762C39.6309 25.3369 39.063 25.3369 38.4951 25.2951C36.7775 25.1829 35.1023 25.379 33.4413 25.7717C31.0422 26.3327 28.8133 27.3004 26.6412 28.4364C23.8872 29.8669 21.1756 31.3954 18.379 32.7417C15.341 34.2283 12.1184 35.1259 8.68288 34.9856C7.24904 34.9295 6.46825 34.3686 6.09914 33.0082C4.09746 25.7296 2.10996 18.4372 0.10829 11.1587C-0.189844 10.0788 0.10829 9.6441 1.244 9.71422C5.63066 9.98067 9.54885 8.55022 13.3393 6.57281C16.0933 5.14237 18.8049 3.62775 21.6015 2.26743C24.6396 0.780885 27.8479 -0.102644 31.2977 0.00955301C32.8734 0.0656513 33.4839 0.500393 33.8956 2.00096C35.7695 8.84472 37.6433 15.6744 39.5173 22.5182C39.6593 23.0371 39.8438 23.542 40 24.0469V24.7621V24.7762ZM14.5034 24.2572C14.6595 24.8743 14.7873 25.4912 14.9577 26.1083C15.3552 27.5949 15.7669 29.0675 16.2069 30.6663C18.4358 29.4882 20.6077 28.3382 22.7656 27.1882C22.1836 25.0566 21.6157 23.0091 21.0336 20.9194C19.9833 21.5084 19.0321 22.0834 18.0525 22.5883C16.8742 23.1914 15.6675 23.7243 14.475 24.2853C14.1485 23.1633 13.8078 22.0273 13.4954 20.9054C13.1689 19.7554 12.8566 18.6055 12.5159 17.3854C10.2019 18.297 7.88788 18.8159 5.40353 18.9281C6.04237 21.284 6.68119 23.57 7.32002 25.926C8.18601 25.8278 9.05198 25.8278 9.86118 25.6315C11.4228 25.239 12.9418 24.7341 14.4892 24.2853L14.5034 24.2572ZM25.818 10.3593C23.5749 11.5373 21.3743 12.6733 19.1882 13.8233C19.8413 16.2073 20.4658 18.5074 21.1046 20.7932C23.3477 19.6153 25.534 18.4793 27.7343 17.3293C27.1097 15.0713 26.485 12.7855 25.818 10.3593ZM12.5869 17.4275C14.7305 16.2634 16.8174 15.1555 18.8759 14.0057C19.0179 13.9356 19.0889 13.5708 19.0463 13.3745C18.7339 12.1544 18.3932 10.9483 18.0525 9.74227C17.8679 9.08313 17.6834 8.424 17.513 7.80694C15.3693 8.91484 13.2825 9.98067 11.224 11.0745C11.0963 11.1447 10.9543 11.4252 10.9969 11.5794C11.4938 13.4867 12.0332 15.3939 12.6011 17.4415L12.5869 17.4275ZM36.2096 22.0834C35.7128 20.2462 35.1875 18.297 34.6338 16.3616C34.6054 16.2354 34.3924 16.0671 34.2789 16.0811C32.0642 16.1512 29.9348 16.6421 27.8195 17.4275C28.3874 19.5031 28.9553 21.5505 29.4805 23.4578C31.7802 22.981 33.9807 22.5322 36.2096 22.0834ZM25.818 10.2331C28.1318 9.75629 30.3466 9.30751 32.5895 8.84471C32.0642 6.93745 31.5105 4.91797 30.957 2.89852C28.5861 2.99669 26.3572 3.45948 24.1853 4.30091C24.7532 6.34844 25.2927 8.33985 25.818 10.2331Z" fill="#C4CED9"/>
</svg>
