<svg width="861" height="572" viewBox="0 0 861 572" fill="none" xmlns="http://www.w3.org/2000/svg">
<path d="M435.735 160.527C428.066 147.843 418.978 134.299 404.746 130.158C388.264 125.361 371.333 134.889 356.971 144.292C314.022 172.412 272.661 202.886 233.078 235.575L233.121 236.068C263.938 233.942 294.755 231.817 325.572 229.692C347.837 228.157 370.868 226.409 390.544 215.876C398.011 211.88 405.289 206.541 413.75 206.169C424.261 205.706 433.427 213.048 440.63 220.718C483.237 266.089 495.567 335.472 543.368 375.334C513.226 300.999 477.236 229.171 435.735 160.527Z" fill="#F2F2F2"/>
<path d="M697.636 545.355C692.925 539.406 690.999 538.012 686.352 532.008C648.509 483.064 612.94 432.466 579.644 380.215C557.028 344.729 535.534 308.561 515.161 271.711C505.462 254.192 496.029 236.536 486.862 218.742C479.748 204.946 472.793 191.066 465.997 177.104C464.053 173.117 462.165 169.111 460.286 165.095C455.858 155.653 451.512 146.165 446.846 136.851C441.529 126.235 435.057 115.106 425.294 107.974C420.851 104.595 415.537 102.55 409.975 102.079C402.027 101.566 394.693 104.848 387.799 108.432C337.361 134.733 290.14 167.708 247.43 205.23C204.61 242.836 166.336 285.322 133.388 331.821C132.38 333.26 129.996 331.885 131.014 330.437C135.02 324.772 139.106 319.167 143.271 313.624C195.059 244.746 258.56 185.515 330.87 138.638C343.036 130.754 355.43 123.24 368.053 116.096C374.415 112.493 380.805 108.936 387.304 105.599C393.676 102.327 400.441 99.3839 407.72 99.2739C432.49 98.8889 445.315 126.941 454.125 145.816C456.894 151.757 459.696 157.679 462.531 163.583C473.248 185.997 484.377 208.206 495.919 230.211C503.042 243.797 510.321 257.303 517.756 270.73C540.894 312.542 565.486 353.508 591.534 393.627C626.04 446.77 660.271 493.716 699.58 543.412C700.662 544.787 698.728 546.749 697.636 545.355Z" fill="#E4E4E4"/>
<path d="M244.982 191.378C243.543 189.774 242.113 188.169 240.664 186.565C229.242 173.933 216.985 161.447 201.3 154.204C193.821 150.642 185.656 148.75 177.373 148.658C168.811 148.686 160.441 150.932 152.53 154.076C148.789 155.57 145.131 157.266 141.529 159.072C137.413 161.144 133.37 163.354 129.346 165.581C121.792 169.761 114.335 174.125 106.977 178.672C92.3371 187.72 78.1552 197.459 64.4318 207.888C57.3177 213.297 50.3505 218.883 43.53 224.646C37.1863 230 30.9709 235.497 24.8839 241.138C23.5822 242.339 21.6386 240.396 22.9403 239.195C24.5446 237.7 26.1672 236.215 27.7898 234.749C32.3735 230.605 37.0305 226.541 41.761 222.556C50.3872 215.277 59.2367 208.279 68.3095 201.563C82.4182 191.112 97.0125 181.37 112.092 172.337C119.628 167.827 127.268 163.506 135.011 159.375C137.349 158.128 139.714 156.909 142.106 155.754C147.535 153.015 153.176 150.719 158.974 148.887C167.187 146.231 175.877 145.377 184.45 146.385C192.728 147.589 200.703 150.348 207.955 154.516C223.356 163.124 235.301 176.435 246.925 189.425C248.099 190.745 246.164 192.698 244.982 191.378Z" fill="#E4E4E4"/>
<path d="M560.542 322.285L615.77 302.085C621.738 299.902 627.691 297.418 633.86 295.855C639.221 294.323 644.913 294.396 650.234 296.063C654.978 297.82 659.321 300.512 663.005 303.98C666.767 307.445 670.269 311.184 673.479 315.166C677.469 319.961 681.399 324.805 685.347 329.634C701.641 349.561 717.829 369.575 733.91 389.675C749.991 409.775 765.964 429.96 781.83 450.231C797.735 470.551 813.53 490.956 829.216 511.447C831.137 513.957 833.057 516.468 834.975 518.981C836.035 520.369 838.425 519 837.35 517.593C821.548 496.896 805.637 476.285 789.615 455.758C773.554 435.182 757.382 414.693 741.099 394.292C724.816 373.891 708.423 353.579 691.92 333.355C687.809 328.316 683.69 323.283 679.566 318.256C676.086 314.015 672.646 309.729 668.829 305.782C661.824 298.537 653.072 292.134 642.595 291.96C636.435 291.858 630.474 293.813 624.751 295.883C618.581 298.115 612.426 300.389 606.265 302.642L559.811 319.633C558.162 320.236 558.875 322.895 560.542 322.285Z" fill="#E4E4E4"/>
<path d="M196.443 170.1C177.689 160.461 153.672 162.349 136.438 174.391C169.31 180.063 201.822 187.651 233.809 197.117C220.526 189.333 210.136 177.138 196.443 170.1Z" fill="#F2F2F2"/>
<path d="M136.253 174.358L132.643 177.293C133.864 176.266 135.134 175.303 136.438 174.391C136.376 174.381 136.315 174.369 136.253 174.358Z" fill="#F2F2F2"/>
<path d="M661.615 322.42C657.982 317.998 654.054 313.368 648.621 311.571L643.548 311.771C682.166 380.01 734.322 439.637 796.815 486.992C751.748 432.135 706.682 377.277 661.615 322.42Z" fill="#F2F2F2"/>
<path d="M346.15 285.941C348.497 294.47 353.786 301.894 361.081 306.899C363.901 308.819 367.237 310.661 368.202 313.934C368.71 316.02 368.397 318.221 367.329 320.084C366.262 321.922 364.964 323.616 363.467 325.125L363.331 325.637C356.332 321.49 349.674 316.244 345.808 309.086C341.943 301.928 341.403 292.547 346.15 285.941Z" fill="#F2F2F2"/>
<path d="M579.149 488.941C581.497 497.47 586.786 504.894 594.081 509.899C596.901 511.819 600.237 513.661 601.202 516.934C601.71 519.02 601.397 521.221 600.329 523.084C599.262 524.922 597.964 526.616 596.467 528.125L596.331 528.637C589.332 524.49 582.674 519.244 578.808 512.086C574.942 504.928 574.403 495.547 579.149 488.941Z" fill="#F2F2F2"/>
<path d="M114.15 474.941C116.497 483.47 121.786 490.894 129.081 495.899C131.901 497.819 135.237 499.661 136.202 502.934C136.71 505.02 136.397 507.221 135.329 509.084C134.262 510.922 132.964 512.616 131.467 514.125L131.331 514.637C124.332 510.49 117.674 505.244 113.808 498.086C109.943 490.928 109.403 481.547 114.15 474.941Z" fill="#F2F2F2"/>
<path d="M649.249 102C677.415 102 700.249 79.1665 700.249 51C700.249 22.8335 677.415 0 649.249 0C621.082 0 598.249 22.8335 598.249 51C598.249 79.1665 621.082 102 649.249 102Z" fill="#4477BB"/>
<path d="M741.284 11.8704C716.567 8.52944 688.349 21.8891 681.943 45.9939C680.328 41.7081 677.393 38.0464 673.562 35.5379C669.73 33.0295 665.2 31.8041 660.626 32.0388C656.052 32.2735 651.671 33.9561 648.116 36.8437C644.562 39.7312 642.017 43.674 640.849 48.1026L643.679 50.1293C696.647 61.5836 751.476 61.3357 804.338 49.4029C787.145 31.334 766.001 15.2113 741.284 11.8704Z" fill="#F0F0F0"/>
<path d="M635.284 79.8704C610.567 76.5294 582.349 89.8891 575.943 113.994C574.328 109.708 571.393 106.046 567.562 103.538C563.73 101.029 559.2 99.8041 554.626 100.039C550.052 100.273 545.671 101.956 542.116 104.844C538.562 107.731 536.017 111.674 534.849 116.103L537.679 118.129C590.647 129.584 645.476 129.336 698.338 117.403C681.145 99.334 660.001 83.2113 635.284 79.8704Z" fill="#F0F0F0"/>
<path d="M851.011 92.7282C850.909 92.7284 850.807 92.7126 850.709 92.6814C586.303 9.06319 353.265 19.9977 204.33 43.8952C184.061 47.1462 163.738 50.9011 143.926 55.0563C138.868 56.1159 133.62 57.2517 128.329 58.4343C122.01 59.8415 115.775 61.2907 109.797 62.7399C107.215 63.3513 104.683 63.9675 102.202 64.5886C98.4438 65.5163 94.6303 66.4831 90.5425 67.5456C85.9746 68.7233 81.3334 69.9587 76.7451 71.2175C76.7283 71.2234 76.7112 71.2283 76.6938 71.2321L76.6943 71.2331C71.5117 72.6481 66.3564 74.1042 61.3711 75.5583C58.6728 76.3376 56.0673 77.1062 53.5717 77.8649C53.2929 77.9421 53.0459 78.0163 52.7954 78.0925L52.2592 78.2556C51.9487 78.3503 51.6421 78.4431 51.3354 78.5309L51.3159 78.5368L51.3164 78.5378L50.5048 78.7898C49.5371 79.0828 48.5927 79.3689 47.664 79.6541C23.1191 87.2205 9.62593 92.6033 9.49263 92.656C9.37074 92.7049 9.24042 92.7292 9.10911 92.7277C8.97779 92.7262 8.84806 92.6989 8.72731 92.6472C8.60657 92.5956 8.49717 92.5207 8.40538 92.4268C8.3136 92.3329 8.2412 92.2218 8.19234 92.0999C8.14348 91.978 8.11912 91.8476 8.12063 91.7163C8.12213 91.585 8.14949 91.4553 8.20113 91.3345C8.25277 91.2138 8.32769 91.1044 8.4216 91.0126C8.51552 90.9208 8.6266 90.8484 8.74849 90.7996C8.88277 90.7468 22.4419 85.3367 47.0761 77.742C48.0083 77.4558 48.9551 77.1697 49.9258 76.8757L50.6796 76.6414C50.7055 76.6316 50.7314 76.6238 50.7578 76.616C51.063 76.5291 51.3676 76.4363 51.6772 76.3425L52.2143 76.1795C52.4819 76.0984 52.7456 76.0183 53.0156 75.9441C55.4941 75.1902 58.1084 74.4197 60.8134 73.6375C65.8007 72.1824 70.9609 70.7263 76.1474 69.3093C76.1635 69.3035 76.1801 69.2996 76.1963 69.2947C80.8008 68.032 85.459 66.7908 90.0415 65.6091C94.1357 64.5457 97.9565 63.5769 101.721 62.6472C104.213 62.0271 106.749 61.4096 109.331 60.7947C115.316 59.3435 121.563 57.8923 127.894 56.4822C133.193 55.2986 138.449 54.1599 143.516 53.0994C163.359 48.9373 183.713 45.1765 204.013 41.9207C353.162 17.989 586.533 7.0368 851.312 90.7751C851.54 90.8469 851.734 90.9979 851.86 91.2007C851.986 91.4035 852.036 91.6447 851.999 91.8806C851.963 92.1166 851.843 92.3318 851.662 92.4873C851.481 92.6427 851.25 92.7282 851.011 92.7282Z" fill="#CCCCCC"/>
<path d="M644.357 319.791C636.492 349.571 627.093 378.924 616.196 407.732C613.189 415.679 610.113 423.609 606.824 431.444L607.58 429.653C606.113 433.385 604.238 436.943 601.991 440.265C601.838 440.479 601.682 440.691 601.524 440.901C602.301 439.907 602.449 439.711 601.967 440.312C601.713 440.613 601.462 440.914 601.199 441.207C600.499 441.991 599.748 442.727 598.95 443.411C598.749 443.582 598.545 443.751 598.338 443.915L599.276 443.186C599.167 443.443 598.403 443.783 598.165 443.929C597.395 444.394 596.591 444.801 595.761 445.147L597.552 444.391C596.191 444.94 594.771 445.329 593.321 445.552L595.315 445.284C593.89 445.481 592.446 445.496 591.017 445.33L593.011 445.598C591.842 445.437 590.698 445.129 589.606 444.681L591.397 445.437C590.815 445.183 590.254 444.884 589.719 444.541C589.447 444.364 588.613 443.732 589.704 444.565C590.837 445.431 589.849 444.64 589.616 444.41C589.422 444.218 589.247 444.01 589.056 443.815C588.174 442.91 590.053 445.371 589.453 444.313C589.133 443.783 588.84 443.237 588.575 442.677L589.331 444.468C588.987 443.615 588.743 442.726 588.603 441.817L588.871 443.81C588.728 442.68 588.727 441.536 588.868 440.406L588.6 442.399C588.783 441.137 589.117 439.902 589.595 438.719L588.839 440.511C589.172 439.715 589.565 438.947 590.017 438.212C590.225 437.833 590.468 437.474 590.745 437.141C590.794 437.157 589.477 438.654 590.176 437.898C590.359 437.7 590.53 437.492 590.715 437.296C591.011 436.982 591.328 436.695 591.64 436.398C592.685 435.404 590.179 437.364 591.384 436.577C592.258 436.003 593.177 435.501 594.133 435.078L592.342 435.834C593.943 435.176 595.621 434.726 597.337 434.494L595.343 434.762C597.491 434.515 599.662 434.541 601.804 434.839L599.81 434.571C602.522 434.982 605.173 435.727 607.702 436.791L605.91 436.034C611.3 438.348 616.073 441.784 620.838 445.152C625.44 448.485 630.29 451.463 635.344 454.059C646.217 459.465 657.92 463.005 669.966 464.533C687.242 466.649 704.772 464.393 720.949 457.971C737.126 451.55 751.431 441.169 762.552 427.781C763.909 426.342 764.69 424.455 764.749 422.477C764.734 420.491 763.946 418.589 762.552 417.174C759.8 414.648 754.603 413.935 751.945 417.174C749.427 420.249 746.72 423.163 743.839 425.901C742.494 427.177 741.113 428.414 739.696 429.611C738.887 430.295 738.067 430.965 737.236 431.622C736.842 431.933 735.617 432.76 737.499 431.425C737.067 431.731 736.654 432.065 736.228 432.379C729.93 437.022 723.105 440.904 715.896 443.944L717.688 443.188C709.951 446.433 701.826 448.66 693.516 449.811L695.51 449.543C686.962 450.667 678.302 450.654 669.757 449.505L671.75 449.773C663.207 448.599 654.852 446.324 646.893 443.002L648.685 443.758C641.005 440.36 633.717 436.139 626.948 431.167C623.426 428.559 619.711 426.221 615.836 424.173C611.321 421.867 606.432 420.381 601.398 419.785C591.959 418.674 582.341 422.35 577.151 430.505C572.376 438.01 572.437 448.749 579.125 455.13C586.013 461.703 596.444 461.647 604.561 457.536C612.378 453.576 617.074 445.35 620.376 437.594C627.807 420.139 634.386 402.28 640.516 384.331C646.58 366.573 652.079 348.635 657.014 330.518C657.625 328.274 658.227 326.027 658.821 323.779C659.822 319.99 657.56 315.459 653.583 314.553C651.666 314.06 649.632 314.33 647.911 315.307C646.19 316.285 644.915 317.892 644.357 319.791Z" fill="#4477BB"/>
<path d="M719.19 317.71L712.286 562.681C712.303 564.664 713.098 566.562 714.501 567.965C715.904 569.368 717.802 570.164 719.786 570.181C721.763 570.142 723.649 569.34 725.047 567.942C726.445 566.543 727.248 564.658 727.286 562.681L734.19 317.71C734.173 315.726 733.377 313.828 731.974 312.425C730.571 311.022 728.673 310.226 726.69 310.21C724.712 310.248 722.827 311.05 721.428 312.449C720.03 313.847 719.228 315.732 719.19 317.71Z" fill="#4477BB"/>
<path d="M95.2488 450C101.324 450 106.249 445.075 106.249 439C106.249 432.925 101.324 428 95.2488 428C89.1736 428 84.2488 432.925 84.2488 439C84.2488 445.075 89.1736 450 95.2488 450Z" fill="#4477BB"/>
<path d="M227.249 570C233.324 570 238.249 565.075 238.249 559C238.249 552.925 233.324 548 227.249 548C221.174 548 216.249 552.925 216.249 559C216.249 565.075 221.174 570 227.249 570Z" fill="#4477BB"/>
<path d="M728.249 570C734.324 570 739.249 565.075 739.249 559C739.249 552.925 734.324 548 728.249 548C722.174 548 717.249 552.925 717.249 559C717.249 565.075 722.174 570 728.249 570Z" fill="#4477BB"/>
<path d="M755.249 430C761.324 430 766.249 425.075 766.249 419C766.249 412.925 761.324 408 755.249 408C749.174 408 744.249 412.925 744.249 419C744.249 425.075 749.174 430 755.249 430Z" fill="#4477BB"/>
<path d="M723.249 328C729.324 328 734.249 323.075 734.249 317C734.249 310.925 729.324 306 723.249 306C717.174 306 712.249 310.925 712.249 317C712.249 323.075 717.174 328 723.249 328Z" fill="#4477BB"/>
<path d="M264.249 419C264.242 421.81 263.156 424.509 261.214 426.54C259.272 428.571 256.624 429.778 253.817 429.911C251.011 430.044 248.26 429.093 246.136 427.254C244.011 425.415 242.674 422.83 242.402 420.034C242.13 417.237 242.944 414.443 244.675 412.23C246.406 410.016 248.921 408.553 251.701 408.143C254.481 407.732 257.312 408.406 259.608 410.025C261.905 411.644 263.491 414.084 264.039 416.84C264.18 417.551 264.25 418.275 264.249 419Z" fill="#4477BB"/>
<path d="M484.249 360C490.324 360 495.249 355.075 495.249 349C495.249 342.925 490.324 338 484.249 338C478.174 338 473.249 342.925 473.249 349C473.249 355.075 478.174 360 484.249 360Z" fill="#4477BB"/>
<path d="M233.249 317C233.242 319.81 232.156 322.51 230.214 324.54C228.272 326.571 225.624 327.778 222.817 327.911C220.011 328.044 217.26 327.093 215.136 325.254C213.011 323.415 211.674 320.83 211.402 318.034C211.13 315.237 211.944 312.443 213.675 310.23C215.406 308.016 217.921 306.553 220.701 306.143C223.481 305.732 226.312 306.406 228.608 308.025C230.905 309.644 232.491 312.084 233.039 314.84C233.18 315.551 233.25 316.275 233.249 317Z" fill="#4477BB"/>
<path d="M599.249 454C605.324 454 610.249 449.075 610.249 443C610.249 436.925 605.324 432 599.249 432C593.174 432 588.249 436.925 588.249 443C588.249 449.075 593.174 454 599.249 454Z" fill="#4477BB"/>
<path d="M426.249 354C435.085 354 442.249 346.837 442.249 338C442.249 329.163 435.085 322 426.249 322C417.412 322 410.249 329.163 410.249 338C410.249 346.837 417.412 354 426.249 354Z" fill="#4477BB"/>
<path d="M858.941 570.841L1.19067 571.148C1.03431 571.148 0.879476 571.117 0.735016 571.057C0.590556 570.997 0.459305 570.91 0.34874 570.799C0.238175 570.689 0.150459 570.557 0.0906219 570.413C0.0307847 570.269 0 570.114 0 569.957C0 569.801 0.0307847 569.646 0.0906219 569.502C0.150459 569.357 0.238175 569.226 0.34874 569.115C0.459305 569.005 0.590556 568.917 0.735016 568.857C0.879476 568.797 1.03431 568.767 1.19067 568.767L858.941 568.459C859.256 568.46 859.558 568.586 859.78 568.809C860.003 569.032 860.128 569.335 860.128 569.65C860.128 569.965 860.003 570.267 859.78 570.491C859.558 570.714 859.256 570.84 858.941 570.841Z" fill="#CACACA"/>
<path fill-rule="evenodd" clip-rule="evenodd" d="M232.659 327.13L232.929 317.71C232.913 315.726 232.117 313.827 230.714 312.424C229.311 311.021 227.413 310.226 225.429 310.21C223.452 310.248 221.566 311.05 220.168 312.449C218.769 313.847 217.967 315.733 217.929 317.71C217.884 319.251 217.842 320.79 217.799 322.329C217.756 323.875 217.714 325.421 217.669 326.97L217.069 348.05C216.902 354.217 216.729 360.38 216.549 366.54L215.229 413.5L215.226 413.581L215.226 413.585C215.197 414.546 215.168 415.498 215.149 416.46C215.134 417.025 215.116 417.587 215.099 418.15C215.081 418.712 215.064 419.275 215.049 419.84C214.825 427.9 214.599 435.96 214.369 444.02C201.443 449.315 187.422 451.382 173.519 450.04C172.099 449.93 170.679 449.78 169.259 449.59C167.619 449.35 165.989 449.06 164.369 448.73C158.201 447.499 152.167 445.678 146.349 443.29C139.071 439.957 132.149 435.897 125.689 431.17C124.689 430.46 123.679 429.75 122.669 429.06C123.819 426.24 124.949 423.42 126.049 420.58C126.599 419.21 127.129 417.84 127.649 416.46C131.739 405.83 135.579 395.1 139.259 384.33C142.979 373.42 146.489 362.447 149.789 351.41C150.129 350.29 150.459 349.17 150.779 348.05C152.509 342.22 154.169 336.377 155.759 330.52C155.789 330.404 155.82 330.289 155.851 330.174C155.875 330.086 155.899 329.998 155.923 329.91C156.021 329.547 156.119 329.186 156.209 328.82C156.669 327.14 157.119 325.46 157.559 323.78C158.559 319.99 156.299 315.46 152.319 314.55C150.402 314.059 148.37 314.33 146.65 315.308C144.931 316.285 143.657 317.892 143.099 319.79C142.669 321.41 142.239 323.02 141.799 324.64C139.689 332.47 137.469 340.273 135.139 348.05L134.119 351.41C128.979 368.35 123.335 385.12 117.189 401.72C116.449 403.73 115.699 405.733 114.939 407.73C114.569 408.71 114.199 409.69 113.819 410.67C113.089 412.6 112.339 414.53 111.589 416.46C111.159 417.59 110.719 418.72 110.279 419.84C110.071 420.348 109.869 420.856 109.668 421.361L109.575 421.593L109.429 421.96C106.578 420.936 103.624 420.225 100.619 419.84L100.139 419.78C97.8092 419.5 95.4532 419.52 93.1288 419.84C89.6498 420.246 86.3025 421.411 83.3235 423.253C80.3444 425.095 77.8064 427.569 75.8888 430.5C71.1188 438.01 71.1788 448.75 77.8688 455.13C84.7588 461.7 95.1888 461.65 103.299 457.54C107.597 455.215 111.22 451.818 113.819 447.68C114.814 446.18 115.729 444.628 116.559 443.03L116.56 443.031C116.769 443.17 116.979 443.31 117.189 443.46C117.809 443.894 118.429 444.334 119.044 444.771L119.579 445.15C124.182 448.485 129.033 451.463 134.089 454.06C144.961 459.465 156.664 463.004 168.709 464.53C168.844 464.545 168.976 464.562 169.109 464.58C169.164 464.587 169.219 464.595 169.274 464.602C169.352 464.612 169.43 464.621 169.509 464.63C170.839 464.8 172.179 464.93 173.519 465.04C187.235 466.074 200.963 464.367 213.919 460.08C213.455 476.32 212.999 492.56 212.549 508.8C212.035 526.76 211.529 544.72 211.029 562.68C211.045 564.664 211.84 566.563 213.243 567.966C214.646 569.369 216.545 570.164 218.529 570.18C220.506 570.142 222.392 569.34 223.79 567.941C225.188 566.543 225.991 564.657 226.029 562.68L228.729 466.89C228.855 462.483 228.979 458.08 229.099 453.68C230.549 452.93 231.985 452.143 233.409 451.32C235.619 450.04 237.779 448.68 239.889 447.24C241.039 446.46 242.159 445.67 243.269 444.84C248.119 441.267 252.641 437.268 256.779 432.89C258.349 431.24 259.852 429.537 261.289 427.78C262.647 426.343 263.43 424.457 263.489 422.48C263.481 421.577 263.312 420.683 262.989 419.84C262.642 418.827 262.06 417.912 261.289 417.17C261.004 416.906 260.696 416.668 260.369 416.46C257.759 414.72 253.859 414.33 251.379 416.46C251.129 416.677 250.898 416.914 250.689 417.17C249.949 418.08 249.189 418.97 248.409 419.84C247.129 421.3 245.819 422.71 244.449 424.08C244.318 424.207 244.187 424.336 244.056 424.465C243.796 424.72 243.535 424.977 243.269 425.23C243.192 425.306 243.116 425.382 243.04 425.456C242.888 425.605 242.736 425.75 242.583 425.896L242.579 425.9C241.699 426.74 240.799 427.55 239.889 428.35C239.409 428.78 238.929 429.2 238.439 429.61L238.435 429.613C237.707 430.222 236.978 430.831 236.239 431.42C236.169 431.47 236.099 431.52 236.029 431.58C236.009 431.59 235.999 431.61 235.979 431.62C235.975 431.62 235.97 431.62 235.966 431.622C235.96 431.624 235.955 431.628 235.949 431.64C235.922 431.651 235.898 431.668 235.879 431.69L235.802 431.742C235.623 431.864 235.495 431.951 235.399 432.03C235.406 432.026 235.414 432.022 235.421 432.018C235.434 432.011 235.446 432.003 235.459 431.995C235.479 431.982 235.499 431.97 235.519 431.96C235.385 432.064 235.246 432.168 235.109 432.272C235.062 432.308 235.015 432.344 234.969 432.38C233.219 433.67 231.429 434.91 229.599 436.07L230.049 419.84C230.064 419.275 230.081 418.712 230.099 418.15L230.112 417.72C230.125 417.301 230.138 416.881 230.149 416.46C230.452 405.557 230.759 394.65 231.069 383.74C231.185 379.69 231.299 375.64 231.409 371.59C231.639 363.747 231.859 355.9 232.069 348.05C232.272 341.073 232.469 334.1 232.659 327.13ZM229.599 436.07C229.429 441.94 229.262 447.81 229.099 453.68C224.197 456.222 219.12 458.359 213.919 460.08L214.369 444.02C214.709 443.89 215.049 443.75 215.379 443.62C220.315 441.493 225.071 438.968 229.599 436.07ZM97.3988 443.66C97.6088 443.51 97.8188 443.35 98.0188 443.19C97.9588 443.34 97.6687 443.51 97.3988 443.66ZM100.274 440.82C100.384 440.69 100.494 440.56 100.609 440.43C100.626 440.409 100.643 440.385 100.66 440.361C100.682 440.33 100.704 440.297 100.727 440.263L100.729 440.26C101.76 438.815 102.686 437.298 103.499 435.72C102.157 435.288 100.787 434.951 99.3988 434.71C97.9329 434.567 96.4571 434.553 94.9888 434.67C93.9931 434.857 93.0135 435.121 92.0588 435.46C91.4571 435.764 90.8728 436.101 90.3088 436.47C90.2666 436.509 90.2245 436.548 90.1823 436.587C89.935 436.816 89.6894 437.044 89.4588 437.3C89.3377 437.421 89.2222 437.554 89.1081 437.685L89.1072 437.686C89.0709 437.728 89.0349 437.769 88.9988 437.81C88.9988 437.814 88.9988 437.817 88.998 437.819C88.997 437.822 88.9946 437.824 88.9888 437.83C88.8788 438.01 88.7788 438.17 88.7588 438.21C88.5018 438.615 88.2713 439.036 88.0688 439.47C87.8435 440.083 87.663 440.711 87.5288 441.35C87.5005 441.806 87.4971 442.263 87.5188 442.72C87.5788 442.98 87.6488 443.24 87.7288 443.49C87.7295 443.498 87.7331 443.505 87.7388 443.51L87.7732 443.572C87.8178 443.652 87.8637 443.732 87.9096 443.811C87.9669 443.911 88.0241 444.01 88.0788 444.11L88.0811 444.11L88.0827 444.111L88.0847 444.112L88.086 444.113L88.0881 444.116L88.0888 444.12C88.1708 444.224 88.2611 444.321 88.3588 444.41C88.4087 444.46 88.4888 444.54 88.5788 444.62C88.8088 444.76 89.0388 444.9 89.2788 445.02C89.755 445.178 90.239 445.311 90.7288 445.42H90.7488C91.4585 445.458 92.1699 445.452 92.8788 445.4C93.8013 445.225 94.7077 444.974 95.5888 444.65C96.0387 444.43 96.4787 444.19 96.9087 443.93C97.044 443.848 97.1843 443.775 97.3288 443.71L97.3295 443.706L97.3305 443.704L97.3316 443.703L97.3349 443.701L97.3364 443.7L97.3376 443.7L97.3388 443.7C97.4588 443.61 97.5788 443.51 97.6888 443.41C98.4873 442.728 99.239 441.993 99.9388 441.21C100.054 441.08 100.164 440.95 100.274 440.82ZM89.4888 437.14C89.4007 437.281 89.2967 437.412 89.1788 437.53C89.2581 437.383 89.3631 437.251 89.4888 437.14Z" fill="#4477BB"/>
<path d="M372.214 356.54C374.156 354.51 375.242 351.81 375.249 349C375.25 348.275 375.18 347.551 375.039 346.84C374.956 346.421 374.848 346.01 374.718 345.608C369.066 348.061 364.106 350.576 360.706 352.966C359.161 354.04 357.645 355.15 356.159 356.296C356.462 356.633 356.788 356.954 357.136 357.254C359.26 359.093 362.011 360.044 364.817 359.911C367.624 359.778 370.272 358.571 372.214 356.54Z" fill="#4477BB"/>
<path d="M229.599 436.07C225.071 438.968 220.315 441.493 215.379 443.62C215.049 443.75 214.709 443.89 214.369 444.02L213.919 460.08C219.12 458.359 224.197 456.222 229.099 453.68C229.262 447.81 229.429 441.94 229.599 436.07Z" fill="#4477BB"/>
<path d="M432.497 512.456C431.723 512.491 430.956 512.288 430.301 511.873C429.647 511.459 429.135 510.853 428.836 510.138C428.537 509.423 428.465 508.633 428.63 507.876C428.795 507.119 429.188 506.43 429.757 505.904L430.016 504.875C429.982 504.792 429.948 504.71 429.914 504.627C427.243 498.26 413.548 510.398 406.885 519.915C407.741 524.328 409.381 528.561 411.739 532.41L412.031 534.965C416.599 535.356 421.184 535.456 425.761 535.265C425.938 535.047 426.115 534.828 426.292 534.61C426.553 534.289 426.814 533.968 427.074 533.647C428.19 532.273 429.306 530.898 430.421 529.529C430.451 529.498 430.48 529.467 430.508 529.434C430.526 529.412 430.544 529.39 430.561 529.368C431.126 528.668 431.694 527.972 432.261 527.275C432.829 526.579 433.396 525.882 433.961 525.183L433.961 525.181C434.022 520.894 433.53 516.617 432.498 512.456L432.497 512.456Z" fill="#4477BB"/>
<path fill-rule="evenodd" clip-rule="evenodd" d="M519.887 390.061L519.865 390.018C511.256 373.245 497.928 359.131 482.255 348.757C466.518 338.389 448.461 332.074 429.692 330.377C427.232 330.154 424.765 330.023 422.293 329.984C420.046 329.951 393.539 337.439 374.718 345.608C373.993 343.362 372.556 341.398 370.608 340.025C368.312 338.406 365.481 337.732 362.701 338.143C359.921 338.553 357.406 340.016 355.675 342.23C353.944 344.443 353.13 347.237 353.402 350.034C353.63 352.374 354.602 354.565 356.159 356.296C343.491 366.059 332.995 378.386 325.373 392.493C316.871 408.343 312.689 426.15 313.247 444.127C313.976 462.212 319.017 479.861 327.95 495.603C336.761 511.293 349.272 524.594 364.394 534.348C370.018 537.937 375.651 543.698 381.423 549.601C391.394 559.798 401.779 570.42 413.249 571C424.709 571.58 437.18 562.138 448.995 553.194C455.99 547.898 462.755 542.777 468.944 540.013C485.585 532.519 499.971 520.794 510.669 506.008C521.065 491.517 527.79 474.721 530.268 457.06C532.842 438.977 531.643 420.327 525.467 403.044C523.951 398.796 522.18 394.643 520.163 390.609C520.079 390.423 519.987 390.24 519.887 390.061ZM356.159 356.296C357.645 355.15 359.161 354.04 360.706 352.966C364.106 350.576 369.066 348.061 374.718 345.608C374.848 346.01 374.956 346.421 375.039 346.84C375.18 347.551 375.25 348.275 375.249 349C375.242 351.81 374.156 354.51 372.214 356.54C370.272 358.571 367.624 359.778 364.817 359.911C362.011 360.044 359.26 359.093 357.136 357.254C356.788 356.954 356.462 356.633 356.159 356.296ZM506.935 397.631C506.86 397.496 506.789 397.359 506.723 397.22C504.347 392.636 501.612 388.247 498.543 384.093C498.294 383.757 498.041 383.423 497.788 383.089L497.648 382.904C497.839 383.158 497.969 383.33 498.051 383.44C498.133 383.549 498.167 383.595 498.167 383.595C498.167 383.595 498.083 383.486 497.967 383.334L497.82 383.142C497.732 383.027 497.638 382.905 497.553 382.795C497.472 382.691 497.398 382.597 497.344 382.53C496.611 381.614 495.862 380.712 495.098 379.822C493.607 378.089 492.062 376.407 490.461 374.777C487.281 371.558 483.906 368.537 480.356 365.731L480.24 365.644L480.126 365.557L480.103 365.54C479.967 365.437 479.831 365.335 479.694 365.233C479.248 364.899 478.799 364.57 478.348 364.244C477.445 363.591 476.532 362.953 475.61 362.329C473.66 361.01 471.671 359.756 469.642 358.566C465.815 356.327 461.856 354.32 457.788 352.557C450.03 349.37 441.922 347.114 433.634 345.834C426.465 345.399 394.821 352.463 386.285 355.759C381.374 357.915 376.638 360.45 372.119 363.34C369.918 364.749 367.773 366.236 365.683 367.801C365.528 367.918 365.257 368.13 365.047 368.295C365.19 368.182 365.39 368.022 365.664 367.804C365.683 367.789 365.703 367.774 365.723 367.758C365.743 367.742 365.764 367.725 365.785 367.709L365.723 367.758L365.664 367.804L365.572 367.876L365.459 367.964C365.411 368.001 365.363 368.038 365.315 368.075L365.223 368.147C364.757 368.514 364.293 368.885 363.832 369.26C362.819 370.085 361.82 370.928 360.838 371.789C356.949 375.196 353.312 378.879 349.954 382.81C349.112 383.795 348.289 384.796 347.484 385.811C347.397 385.92 347.306 386.035 347.237 386.126C347.276 386.076 347.315 386.025 347.355 385.975L347.484 385.811C347.801 385.417 348.071 385.103 347.101 386.305L347.221 386.147L347.183 386.196L347.142 386.248C347.097 386.306 347.051 386.365 347.005 386.423L347.101 386.305C346.784 386.726 346.469 387.149 346.158 387.575C344.617 389.682 343.158 391.844 341.781 394.059C339.176 398.252 336.881 402.629 334.913 407.154C332.033 414.191 330.012 421.549 328.892 429.069C327.953 436.902 327.964 444.819 328.925 452.649C330.182 461.269 332.491 469.702 335.8 477.76C337.914 482.642 340.383 487.362 343.185 491.885C344.508 494.017 345.904 496.099 347.373 498.131C347.71 498.597 348.05 499.06 348.395 499.521C348.408 499.539 348.423 499.56 348.441 499.584C348.465 499.618 348.494 499.657 348.525 499.699C348.607 499.809 348.705 499.939 348.786 500.042L348.864 500.141C348.792 500.047 348.72 499.953 348.649 499.859C348.564 499.746 348.479 499.634 348.395 499.521C348.287 499.37 348.361 499.458 348.979 500.287L348.877 500.158L348.976 500.288C349.044 500.377 349.112 500.466 349.178 500.555L348.979 500.287C349.691 501.187 350.418 502.076 351.16 502.953C354.39 506.775 357.898 510.355 361.653 513.662C362.592 514.488 363.546 515.295 364.515 516.084C364.705 516.253 364.898 516.417 365.095 516.578C365.108 516.587 365.192 516.649 365.379 516.791L365.5 516.882L365.68 517.018C365.864 517.158 366.049 517.298 366.234 517.436C368.241 518.935 370.302 520.35 372.418 521.684C376.374 524.171 380.509 526.357 384.79 528.227C389.396 530.101 394.131 531.627 398.955 532.793C396.627 526.925 394.746 520.885 393.328 514.726H393.317C373.707 522.412 341.45 498.258 345.8 483.292C345.875 483.281 345.939 483.27 346.015 483.259L346.119 483.243C347.14 483.086 348.09 482.624 348.844 481.917C349.598 481.211 350.12 480.293 350.344 479.285C350.567 478.276 350.481 477.224 350.096 476.265C349.711 475.307 349.045 474.487 348.186 473.913C347.503 473.461 346.804 473.033 346.09 472.63C344.843 471.93 343.553 471.309 342.228 470.769C342.216 470.69 342.204 470.611 342.192 470.532C341.568 466.391 344.841 465.864 348.8 465.227L348.801 465.227L348.803 465.226L348.804 465.226C349.585 465.1 350.394 464.97 351.205 464.807C359.74 463.088 388.967 483.728 390.671 497.61L390.703 497.836C390.158 491.462 390.129 485.055 390.617 478.676C391.479 467.865 393.743 457.211 397.352 446.984C389.684 454.957 359.051 419.446 368.606 405.802L368.711 405.786C369.732 405.629 370.682 405.166 371.435 404.46C372.189 403.754 372.712 402.836 372.936 401.828C373.159 400.819 373.073 399.767 372.688 398.808C372.303 397.85 371.637 397.03 370.778 396.456C370.094 396.004 369.396 395.576 368.682 395.173L368.699 395.016L368.711 394.905C369.728 385.658 381.566 382.475 387.339 389.769C392.145 395.842 404.573 424.511 403.556 432.45C407.149 425.292 411.434 418.504 416.35 412.182C416.407 412.109 416.464 412.037 416.521 411.966C416.572 411.902 416.623 411.839 416.674 411.775L416.76 411.669L416.763 411.666C416.899 411.498 417.034 411.33 417.168 411.16C414.422 407.072 412.392 402.546 411.165 397.777C409.917 392.172 410.595 385.878 414.188 381.392C417.77 376.906 424.612 374.895 429.572 377.799C431.003 378.655 432.218 379.829 433.122 381.231C433.003 381.378 432.884 381.525 432.765 381.671L432.627 381.841L432.379 382.145C432.132 382.449 431.885 382.753 431.637 383.06C431.594 383.116 431.547 383.17 431.497 383.221C431.283 383.489 431.066 383.754 430.849 384.019L430.846 384.023L430.653 384.259L430.56 384.373L430.46 384.497L430.335 384.651C430.288 384.709 430.242 384.766 430.196 384.824L430.088 384.956C429.84 385.26 429.593 385.565 429.345 385.87C428.89 386.43 428.607 387.11 428.53 387.828C428.452 388.546 428.584 389.271 428.909 389.915C429.234 390.56 429.738 391.097 430.361 391.462C430.984 391.826 431.699 392.003 432.421 391.971L432.498 391.967C432.609 391.962 432.723 391.956 432.837 391.95L433.122 391.935C433.778 391.892 434.445 391.838 435.101 391.752C434.925 392.813 434.466 393.816 434.008 394.817C433.458 396.018 432.909 397.216 432.853 398.508C432.271 411.83 426.247 412.877 419.373 412.494C407.354 427.547 399.077 445.237 395.222 464.11C394.515 467.588 393.963 471.092 393.565 474.621C393.083 478.925 392.843 483.253 392.844 487.584C392.866 503.349 395.984 518.942 402.005 533.481C402.395 533.562 402.785 533.641 403.176 533.718C402.975 531.572 403.005 529.406 403.269 527.259C403.492 525.445 404.865 522.8 406.885 519.915C407.741 524.328 409.381 528.561 411.739 532.41L412.031 534.965L412.499 539.05L412.522 539.254H423.636C424.151 538.836 424.655 538.411 425.159 537.978C424.685 537.911 424.212 537.835 423.741 537.748C424.414 536.922 425.087 536.094 425.761 535.265L426.292 534.61L427.074 533.647C428.19 532.273 429.306 530.898 430.421 529.529C430.451 529.498 430.48 529.467 430.508 529.434C430.526 529.412 430.544 529.39 430.561 529.368C431.126 528.668 431.694 527.972 432.261 527.275C432.829 526.579 433.396 525.882 433.961 525.183L433.961 525.181C434.022 520.894 433.53 516.617 432.498 512.456L432.497 512.456C431.723 512.491 430.956 512.288 430.301 511.873C429.647 511.459 429.135 510.853 428.836 510.138C428.537 509.423 428.465 508.633 428.63 507.876C428.795 507.119 429.188 506.43 429.757 505.904L430.016 504.875C429.982 504.792 429.948 504.71 429.914 504.627C427.243 498.26 413.548 510.398 406.885 519.915C406.671 518.809 406.506 517.691 406.392 516.566C405.821 510.951 406.52 505.278 408.439 499.97C411.039 492.957 415.715 486.749 420.346 480.602L420.559 480.32C427.049 471.7 433.359 463.18 433.589 452.67C436.782 456.757 439.437 461.237 441.489 466C439.553 466.911 437.814 468.192 436.369 469.77C435.959 470.22 435.549 470.85 435.829 471.39C436.069 471.85 436.669 471.96 437.189 472.02C437.814 472.085 438.441 472.15 439.069 472.215L439.741 472.285L440.949 472.41C441.449 472.465 441.949 472.517 442.449 472.57C442.949 472.622 443.449 472.675 443.949 472.73C445.159 476.701 445.979 480.78 446.399 484.91C447.073 491.334 446.725 497.825 445.369 504.14C442.727 515.923 436.765 526.672 428.227 535.134C430.352 534.996 432.475 534.796 434.591 534.533C443.446 533.252 452.109 530.889 460.387 527.495C465.204 525.401 469.855 522.944 474.3 520.144C476.343 518.853 478.334 517.489 480.274 516.052C480.392 515.965 480.508 515.878 480.625 515.79L480.755 515.692C480.885 515.594 481.014 515.497 481.144 515.4L481.281 515.298C481.329 515.259 481.378 515.22 481.426 515.18L481.564 515.067L481.705 514.952L481.782 514.89L481.842 514.841L481.909 514.786C482.85 514.027 483.776 513.25 484.687 512.455C488.343 509.263 491.746 505.791 494.863 502.072C495.33 501.514 495.791 500.952 496.245 500.384C496.312 500.301 496.378 500.217 496.445 500.133L496.537 500.016L496.616 499.918C497.204 499.136 497.787 498.35 498.354 497.553C499.792 495.529 501.152 493.455 502.434 491.331C504.794 487.41 506.893 483.338 508.716 479.141C512.122 470.828 514.495 462.128 515.78 453.236C516.888 444.329 516.894 435.319 515.797 426.41C514.623 418.327 512.473 410.416 509.396 402.85C508.626 401.087 507.806 399.347 506.935 397.631ZM364.756 368.526C364.745 368.534 364.824 368.472 365.047 368.295C364.89 368.419 364.767 368.517 364.756 368.526ZM480.488 515.911C480.496 515.905 480.788 515.684 481.046 515.487C480.863 515.633 480.677 515.775 480.488 515.911ZM398.126 444.843L398.142 444.821L398.126 444.864V444.843ZM391.478 504.775L391.22 504.194C391.23 503.775 391.23 503.355 391.22 502.925C391.22 502.806 391.198 502.688 391.198 502.57C391.216 502.706 391.233 502.841 391.25 502.977L391.29 503.292L391.292 503.31L391.292 503.311L391.293 503.312C391.355 503.807 391.417 504.302 391.488 504.797L391.478 504.775Z" fill="#4477BB"/>
<path d="M425.761 535.265C421.184 535.456 416.599 535.356 412.031 534.965L412.499 539.05L412.522 539.254H423.636C424.151 538.836 424.655 538.411 425.159 537.978C424.685 537.911 424.212 537.835 423.741 537.748C424.414 536.922 425.087 536.094 425.761 535.265Z" fill="#4477BB"/>
</svg>
