<svg width="32" height="22" viewBox="0 0 32 22" fill="none" xmlns="http://www.w3.org/2000/svg">
<path d="M6.135 13.5613C4.85397 15.852 2.13372 20.8889 1.88996 21.2635C1.16127 22.3772 -0.275354 21.7216 0.046202 20.0562C0.671161 16.7758 4.07083 10.2202 6.70551 5.46682C2.16483 6.61847 3.75446 3.30777 6.44619 2.52313C11.298 1.11077 18.9065 -0.488898 25.0653 0.141349C27.8348 0.424834 27.4847 2.2523 25.2909 2.34342C18.9065 2.73828 12.9188 3.95321 11.0569 4.66952C9.89254 6.35018 9.2598 7.58536 8.30291 9.08378C10.0326 8.72689 11.9956 8.38013 13.4582 8.34469C14.9233 8.30926 15.2916 8.67374 15.2656 9.2888C15.2345 10.0886 14.4099 10.2354 13.6164 10.4405C11.3603 11.0429 10.4579 11.2504 8.14992 11.949C6.8637 12.3413 6.8222 12.3287 6.135 13.5613Z" fill="white"/>
<path d="M18.9583 12.7154C17.796 12.7154 17.4637 13.8813 18.6971 14.102C24.3249 15.1097 31.6541 8.40269 31.9915 5.31322C32.0704 4.58487 31.5907 4.06953 30.8693 3.9356C27.314 3.27102 13.037 7.87204 13.037 15.5625C13.037 18.6966 15.3008 21.295 18.9893 21.295C23.1885 21.295 27.6424 18.2961 29.5946 15.7909C30.1208 15.1148 30.0225 13.9642 28.7904 14.8954C25.2092 17.6047 21.8969 18.2578 19.9499 18.2731C16.8302 18.2974 14.3945 15.3597 17.5038 11.7804C20.829 7.95241 28.8861 5.42165 29.1524 5.74182C29.4679 6.11557 24.0418 12.7091 18.9583 12.7154Z" fill="white"/>
</svg>
